<?xml version="1.0" standalone="no"?>
<!DOCTYPE svg PUBLIC "-//W3C//DTD SVG 20010904//EN"
 "http://www.w3.org/TR/2001/REC-SVG-20010904/DTD/svg10.dtd">
<svg version="1.0" xmlns="http://www.w3.org/2000/svg"
 width="512.000000pt" height="512.000000pt" viewBox="0 0 512.000000 512.000000"
 preserveAspectRatio="xMidYMid meet">
<metadata>
Created by potrace 1.11, written by Peter Selinger 2001-2013
</metadata>
<g transform="translate(0.000000,512.000000) scale(0.100000,-0.100000)"
fill="#000000" stroke="none">
<path d="M1343 4640 c-89 -44 -169 -90 -177 -101 -16 -24 -21 -13 75 -184 22
-38 47 -86 55 -105 9 -19 19 -37 23 -40 16 -12 82 -141 76 -150 -4 -6 -1 -9 7
-8 7 2 12 -5 12 -14 -1 -10 3 -18 8 -18 6 0 6 -6 -1 -14 -9 -11 -7 -21 9 -48
11 -18 20 -39 20 -46 0 -28 -125 -223 -214 -332 -78 -97 -84 -102 -96 -95 -5
3 -7 0 -4 -8 8 -23 -150 -155 -250 -208 -25 -13 -46 -27 -46 -30 0 -3 37 -20
83 -39 45 -18 85 -36 89 -39 4 -4 -1 -35 -11 -69 -11 -34 -22 -81 -26 -103
l-7 -40 52 31 c28 16 53 30 56 30 4 0 135 95 172 124 7 6 27 26 44 44 18 18
37 30 44 28 9 -3 11 1 7 11 -5 13 -2 15 11 10 10 -4 15 -3 11 3 -3 5 17 33 46
62 28 29 48 48 45 42 -5 -10 -8 -24 -21 -106 -3 -18 -10 -49 -15 -68 -9 -34
-16 -68 -26 -122 -3 -15 -16 -66 -30 -115 -14 -48 -27 -99 -30 -113 -3 -14
-23 -70 -44 -124 -22 -55 -38 -101 -37 -102 1 -1 33 9 71 22 38 13 73 21 78
18 4 -3 8 0 8 5 0 6 7 11 16 11 9 0 24 -22 38 -52 13 -29 31 -72 41 -95 11
-24 22 -43 25 -43 10 0 99 225 115 290 25 107 52 196 58 198 4 2 5 8 2 12 -3
5 0 28 6 52 11 46 17 75 18 96 1 7 4 11 9 9 4 -3 7 11 8 31 0 21 3 53 7 72 4
19 12 59 17 89 6 30 12 57 15 59 5 5 9 -25 8 -55 -1 -7 3 -11 7 -8 4 3 11 -7
16 -23 10 -37 8 -31 33 -87 13 -27 24 -54 25 -60 2 -5 8 -21 13 -35 6 -14 23
-54 37 -90 15 -36 31 -74 35 -85 30 -71 74 -182 75 -191 3 -18 36 -64 46 -64
6 0 63 26 128 57 64 32 123 57 130 57 6 -1 12 2 12 7 0 5 12 15 28 21 62 27
76 57 46 103 -9 13 -12 30 -8 36 4 8 3 9 -4 5 -13 -8 -56 70 -47 85 4 5 3 8
-2 7 -4 -2 -9 1 -10 6 -1 5 -5 12 -11 15 -5 3 -28 42 -52 86 -24 44 -54 98
-67 120 -12 22 -33 60 -46 85 -13 25 -51 92 -83 150 -94 168 -110 206 -93 227
13 16 12 17 -3 4 -16 -12 -19 -10 -32 20 -10 25 -11 36 -3 41 8 5 5 21 -11 53
-12 26 -19 51 -16 57 4 6 2 8 -3 5 -9 -6 -21 9 -28 33 -6 22 -119 236 -126
238 -5 2 -9 7 -9 12 0 8 -24 61 -111 248 -22 46 -39 86 -39 90 0 19 -79 174
-94 184 -16 11 -11 14 -183 -72z"/>
<path d="M3553 4672 c-7 -4 -23 -32 -36 -62 -14 -30 -40 -89 -59 -130 -19 -41
-47 -105 -63 -142 -16 -37 -33 -64 -39 -61 -5 3 -6 1 -2 -5 7 -12 -27 -96 -35
-87 -8 7 -189 -361 -189 -384 0 -12 4 -21 10 -21 6 0 5 -10 -2 -25 -6 -14 -15
-25 -20 -25 -4 0 -8 -8 -8 -18 0 -10 -3 -22 -7 -26 -5 -4 -8 -11 -8 -14 -1
-12 -83 -176 -119 -237 -20 -33 -40 -69 -45 -80 -5 -11 -22 -43 -39 -71 -16
-28 -45 -78 -63 -110 -18 -33 -40 -72 -49 -89 -15 -28 -48 -87 -105 -190 -12
-22 -21 -46 -20 -52 2 -7 3 -17 4 -22 0 -6 42 -30 92 -55 50 -25 87 -46 83
-46 -5 -1 14 -9 41 -19 28 -10 49 -23 48 -29 -2 -7 4 -9 14 -5 12 5 14 3 8 -7
-5 -8 -4 -11 3 -6 6 3 22 2 37 -4 22 -8 30 -6 51 17 13 14 24 33 24 42 0 9 8
28 17 41 10 14 16 26 15 28 -5 4 38 115 50 129 6 7 7 13 3 13 -4 0 -3 6 2 13
5 6 20 40 33 74 12 35 25 61 29 59 4 -3 7 5 7 18 0 20 51 155 64 166 3 3 6 13
8 24 2 10 8 30 14 45 10 24 12 21 25 -44 7 -38 12 -78 9 -88 -2 -9 0 -15 5
-11 5 3 9 -7 10 -23 0 -15 4 -37 8 -48 5 -12 4 -26 -3 -34 -8 -11 -8 -13 2 -7
7 4 13 2 13 -6 4 -33 9 -57 24 -113 9 -33 19 -70 21 -82 2 -12 8 -33 13 -46 7
-17 6 -29 -2 -37 -9 -10 -9 -11 0 -6 7 4 23 -32 48 -109 20 -63 45 -131 56
-152 10 -20 19 -43 19 -50 0 -21 20 -15 29 10 5 12 21 48 35 79 14 31 26 62
26 68 0 22 27 20 115 -10 49 -16 90 -30 92 -30 2 0 -3 13 -11 28 -35 67 -108
299 -131 412 -1 3 -4 19 -8 35 -10 42 -21 93 -42 205 -3 14 -7 38 -11 54 -6
27 -5 27 32 -15 44 -49 147 -147 175 -167 11 -7 17 -18 14 -23 -3 -5 0 -6 8
-3 8 3 20 -3 27 -12 16 -18 88 -66 174 -113 48 -27 57 -30 53 -14 -5 16 -25
89 -33 118 -1 6 -7 24 -12 41 -10 31 -9 32 32 49 22 10 55 24 72 31 17 8 42
18 55 22 24 9 24 9 -8 26 -104 53 -269 188 -256 209 3 6 1 7 -5 3 -6 -4 -22 5
-34 20 -13 15 -32 36 -43 48 -55 57 -96 116 -89 127 4 7 3 9 -3 6 -10 -6 -53
44 -53 63 0 5 -4 10 -10 10 -5 0 -10 5 -10 12 0 6 -6 19 -14 27 -8 9 -16 23
-18 31 -2 8 -8 19 -15 25 -7 5 -13 17 -15 25 -2 8 -8 20 -15 27 -14 15 -5 56
10 46 7 -4 8 0 4 12 -4 9 -2 24 4 31 6 7 9 19 7 26 -3 7 17 49 43 94 26 45 50
92 54 103 3 12 11 18 17 15 6 -4 9 -3 5 2 -3 5 10 36 28 69 75 132 108 203
102 217 -6 17 -321 178 -346 178 -9 0 -21 -4 -28 -8z"/>
<path d="M1890 4020 c0 -5 5 -10 11 -10 5 0 7 5 4 10 -3 6 -8 10 -11 10 -2 0
-4 -4 -4 -10z"/>
<path d="M1926 3938 c3 -5 10 -6 15 -3 13 9 11 12 -6 12 -8 0 -12 -4 -9 -9z"/>
<path d="M3686 3942 c-3 -5 1 -9 9 -9 8 0 12 4 9 9 -3 4 -7 8 -9 8 -2 0 -6 -4
-9 -8z"/>
<path d="M3665 3900 c-3 -6 1 -7 9 -4 18 7 21 14 7 14 -6 0 -13 -4 -16 -10z"/>
<path d="M3725 3800 c-3 -6 1 -7 9 -4 18 7 21 14 7 14 -6 0 -13 -4 -16 -10z"/>
<path d="M1410 3260 c0 -5 5 -10 11 -10 5 0 7 5 4 10 -3 6 -8 10 -11 10 -2 0
-4 -4 -4 -10z"/>
<path d="M1775 3240 c3 -5 8 -10 11 -10 2 0 4 5 4 10 0 6 -5 10 -11 10 -5 0
-7 -4 -4 -10z"/>
<path d="M3693 3209 c-2 -23 3 -25 10 -4 4 8 3 16 -1 19 -4 3 -9 -4 -9 -15z"/>
<path d="M1795 3180 c-3 -5 -1 -10 4 -10 6 0 11 5 11 10 0 6 -2 10 -4 10 -3 0
-8 -4 -11 -10z"/>
<path d="M4115 3129 c-4 -6 -5 -12 -2 -15 2 -3 7 2 10 11 7 17 1 20 -8 4z"/>
<path d="M680 3057 c0 -1 -19 -47 -43 -102 -74 -169 -117 -347 -117 -473 0
-32 -3 -41 -12 -36 -10 6 -10 5 -2 -7 7 -8 12 -50 12 -94 1 -75 3 -108 17
-245 7 -67 11 -85 37 -175 11 -38 21 -74 23 -80 1 -5 12 -32 24 -60 34 -74 44
-99 47 -113 1 -7 7 -19 13 -26 6 -7 23 -35 37 -62 14 -27 56 -93 92 -148 37
-54 72 -105 77 -114 6 -8 17 -23 25 -32 8 -9 27 -31 42 -49 143 -177 336 -324
483 -367 64 -19 208 -26 238 -12 24 12 21 2 -14 -62 -105 -190 -111 -202 -103
-221 5 -10 84 -56 175 -102 180 -91 196 -93 219 -38 7 17 15 29 19 27 4 -3 7
5 8 17 0 12 16 56 35 97 20 41 46 99 58 127 13 30 27 50 33 46 5 -3 7 -1 4 4
-9 15 17 75 28 66 4 -5 5 -3 1 4 -4 7 8 45 27 85 18 40 46 103 62 141 15 37
31 67 35 67 4 0 7 6 7 13 -1 20 24 77 35 77 5 0 7 3 4 8 -2 4 6 30 20 57 13
28 24 55 24 62 0 7 10 22 23 34 12 12 15 18 7 14 -13 -8 -13 -7 0 10 8 10 14
20 12 22 -1 2 9 28 23 59 16 35 29 52 37 48 6 -4 8 -3 5 4 -10 15 3 43 16 35
6 -3 7 -1 3 5 -9 16 34 93 47 85 6 -4 8 0 4 9 -6 17 8 19 31 5 6 -5 12 -4 12
2 0 5 -10 13 -21 16 -19 6 -20 9 -6 22 15 16 42 9 32 -8 -3 -5 1 -6 10 -3 9 4
15 3 14 -2 -4 -17 13 -44 24 -37 6 4 8 0 4 -10 -3 -10 -3 -17 2 -17 4 0 13
-12 20 -27 7 -16 20 -39 29 -53 9 -14 17 -27 17 -30 1 -3 14 -32 29 -65 29
-63 48 -104 89 -195 14 -30 34 -77 46 -103 12 -26 19 -53 15 -59 -4 -6 -3 -8
3 -5 13 8 26 -20 16 -35 -3 -7 -1 -8 5 -4 7 4 12 2 12 -4 0 -7 10 -33 23 -59
13 -25 25 -49 26 -53 3 -12 50 -116 84 -188 16 -36 30 -71 30 -77 0 -7 4 -13
9 -13 4 0 8 -5 8 -10 0 -6 13 -39 29 -73 16 -34 36 -79 44 -99 28 -66 36 -65
212 23 87 43 166 86 176 95 22 19 18 40 -15 93 -14 22 -26 43 -26 47 0 3 -15
31 -33 62 l-33 57 100 1 c103 2 194 26 260 69 14 9 31 13 38 9 7 -4 10 -4 6 1
-4 4 21 28 55 53 72 52 244 222 307 302 23 30 47 54 52 52 5 -1 7 1 4 6 -6 10
28 65 36 57 2 -3 5 1 5 8 0 21 35 67 46 60 5 -3 7 -1 4 4 -4 6 18 54 48 108
30 53 55 99 55 101 0 2 9 23 20 47 27 60 78 214 86 264 4 28 10 40 18 36 7 -4
6 -1 -1 9 -7 8 -10 18 -6 22 4 4 8 17 9 29 11 130 15 212 15 322 0 72 -1 130
-1 130 -1 0 -3 14 -5 30 -7 63 -35 173 -64 256 -34 96 -87 219 -95 219 -3 0
-4 -6 -1 -12 18 -56 29 -402 15 -478 -4 -25 -11 -63 -14 -85 -10 -60 -39 -155
-49 -155 -4 0 -6 -3 -4 -7 3 -5 -3 -24 -13 -43 -11 -19 -24 -46 -30 -58 -18
-41 -123 -137 -179 -166 -95 -47 -136 -45 -263 12 -41 18 -55 30 -51 41 4 12
2 13 -4 3 -7 -10 -30 -2 -99 32 -240 121 -467 185 -694 197 -25 1 -51 7 -59
13 -11 8 -13 8 -7 -1 5 -9 0 -13 -15 -13 -19 0 -20 2 -8 18 13 16 13 16 -7 -1
-21 -18 -64 -24 -64 -8 0 4 9 20 20 33 10 14 17 28 14 30 -2 3 2 11 11 18 8 7
15 19 15 27 0 8 5 11 12 7 7 -4 8 -3 4 4 -12 20 4 34 22 20 15 -11 15 -11 5 3
-10 12 -10 22 0 48 11 31 10 34 -18 54 -16 12 -32 22 -35 23 -3 0 -31 13 -63
28 -44 20 -57 31 -53 43 5 12 3 13 -7 5 -9 -8 -30 -2 -81 24 -98 51 -112 46
-157 -50 l-13 -28 -34 70 c-19 39 -42 73 -51 75 -9 2 -38 -7 -64 -20 -26 -13
-53 -21 -60 -17 -7 4 -9 3 -4 -1 4 -5 -41 -33 -100 -62 -60 -29 -115 -62 -125
-73 -15 -19 -15 -23 6 -63 56 -104 100 -183 108 -193 6 -8 -23 -11 -104 -11
-120 0 -130 -2 -297 -34 -154 -30 -291 -79 -461 -164 -82 -41 -153 -75 -157
-76 -5 0 -14 -5 -20 -11 -7 -6 -20 -8 -28 -4 -9 3 -14 2 -10 -3 7 -12 -51 -25
-66 -15 -8 5 -9 3 -4 -6 13 -20 -64 -6 -128 24 -88 41 -170 128 -218 231 -22
47 -42 96 -43 108 -2 12 -6 29 -10 37 -3 9 -13 54 -20 100 -14 85 -15 407 -1
460 9 39 15 80 10 80 -3 0 -5 -1 -5 -3z"/>
<path d="M2850 2681 c0 -6 4 -13 10 -16 6 -3 7 1 4 9 -7 18 -14 21 -14 7z"/>
<path d="M2944 2402 c4 -3 14 -7 22 -8 9 -1 13 0 10 4 -4 3 -14 7 -22 8 -9 1
-13 0 -10 -4z"/>
<path d="M2590 1640 c0 -5 5 -10 11 -10 5 0 7 5 4 10 -3 6 -8 10 -11 10 -2 0
-4 -4 -4 -10z"/>
<path d="M2547 1627 c-3 -8 1 -14 8 -14 7 0 11 6 8 14 -3 7 -6 13 -8 13 -2 0
-5 -6 -8 -13z"/>
<path d="M2515 1610 c-4 -6 -11 -8 -16 -5 -5 4 -9 1 -9 -4 0 -16 16 -13 30 4
7 8 10 15 7 15 -3 0 -9 -5 -12 -10z"/>
<path d="M2619 1593 c-13 -16 -12 -17 4 -4 16 13 21 21 13 21 -2 0 -10 -8 -17
-17z"/>
<path d="M2536 1567 c3 -10 9 -15 12 -12 3 3 0 11 -7 18 -10 9 -11 8 -5 -6z"/>
<path d="M2653 1505 c0 -8 4 -12 9 -9 5 3 6 10 3 15 -9 13 -12 11 -12 -6z"/>
<path d="M2439 1508 c-5 -18 -6 -38 -1 -34 7 8 12 36 6 36 -2 0 -4 -1 -5 -2z"/>
<path d="M2685 1460 c-3 -6 1 -7 9 -4 18 7 21 14 7 14 -6 0 -13 -4 -16 -10z"/>
<path d="M2416 1382 c-3 -5 1 -9 9 -9 8 0 12 4 9 9 -3 4 -7 8 -9 8 -2 0 -6 -4
-9 -8z"/>
<path d="M2339 1248 c-5 -18 -6 -38 -1 -34 7 8 12 36 6 36 -2 0 -4 -1 -5 -2z"/>
<path d="M4225 1240 c-3 -6 1 -7 9 -4 18 7 21 14 7 14 -6 0 -13 -4 -16 -10z"/>
<path d="M2290 1141 c0 -6 4 -13 10 -16 6 -3 7 1 4 9 -7 18 -14 21 -14 7z"/>
</g>
</svg>
